<svg xmlns="http://www.w3.org/2000/svg" viewBox="0 0 950 300" role="img" aria-labelledby="title"><title id="title">BEE Works horizontal logo</title><defs><linearGradient id="steel" x1="0" x2="1" y1="0" y2="1"><stop stop-color="#f4f1e9"/><stop offset=".48" stop-color="#aeb4bc"/><stop offset="1" stop-color="#616872"/></linearGradient></defs><g transform="translate(10 25) scale(.78)"><path fill="url(#steel)" d="M20 0h152l76 54-43 40 58 47-84 84H20V0Zm58 44v48h89l31-25-32-23H78Zm0 89v48h88l42-40-12-8H78Z"/><path fill="#f4f1e9" d="M78 44h88l32 23-31 25H78V44Zm0 89h118l12 8-42 40H78v-48Z"/><path fill="#e3a72f" d="m0 53 48 29v53L0 106V53Zm0 87 48 29v50L0 190v-50Z"/></g><g transform="translate(260 74)" fill="#111214"><text x="0" y="62" font-family="Arial, sans-serif" font-size="76" font-weight="700" letter-spacing="9">BEE WORKS</text><text x="4" y="110" font-family="Arial, sans-serif" font-size="20" font-weight="700" letter-spacing="8" fill="#e3a72f">APPAREL · EMBROIDERY · CREATION</text></g></svg>